<?xml version="1.0" standalone="no"?>
<!DOCTYPE svg PUBLIC "-//W3C//DTD SVG 20010904//EN"
 "http://www.w3.org/TR/2001/REC-SVG-20010904/DTD/svg10.dtd">
<svg version="1.0" xmlns="http://www.w3.org/2000/svg"
 width="500.000000pt" height="500.000000pt" viewBox="0 0 500.000000 500.000000"
 preserveAspectRatio="xMidYMid meet">
<metadata>
Created by potrace 1.14, written by Peter Selinger 2001-2017
</metadata>
<g transform="translate(0.000000,500.000000) scale(0.100000,-0.100000)"
fill="#000000" stroke="none">
<path d="M2760 4807 c-42 -14 -117 -86 -126 -121 -6 -24 -10 -26 -65 -26 l-58
0 -19 43 c-38 83 -96 113 -207 104 -118 -9 -211 -43 -265 -97 -41 -40 -51 -59
-89 -172 -37 -109 -48 -131 -77 -153 -19 -14 -43 -43 -54 -65 -16 -31 -34 -45
-102 -78 -99 -49 -283 -163 -393 -246 -204 -153 -444 -434 -570 -665 -37 -70
-44 -76 -94 -97 -89 -35 -87 -76 9 -169 23 -22 55 -58 70 -81 l29 -41 -19 -39
c-37 -77 -54 -197 -55 -389 0 -99 4 -211 8 -248 l9 -68 58 78 c32 43 81 105
110 138 28 33 56 67 60 76 7 13 -12 50 -81 153 -66 101 -88 142 -84 157 4 11
12 18 18 16 7 -2 44 -50 84 -108 39 -57 77 -103 83 -101 6 1 9 -2 5 -8 -7 -11
25 -70 38 -70 5 0 11 9 14 20 4 16 8 18 19 9 8 -6 14 -17 14 -25 0 -7 -82
-112 -183 -232 -182 -220 -267 -326 -281 -350 -5 -7 -3 -25 3 -40 9 -21 53
-51 174 -122 89 -52 183 -108 209 -124 l48 -31 0 -138 c0 -76 -4 -136 -8 -133
-21 13 -111 156 -98 156 7 0 19 6 25 14 10 11 7 25 -13 64 -27 53 -62 80 -136
106 -41 14 -46 14 -57 -1 -10 -12 -9 -23 3 -52 22 -52 128 -211 211 -315 72
-90 73 -91 73 -152 0 -33 6 -67 13 -76 12 -15 151 -98 287 -170 36 -19 115
-63 175 -98 61 -35 157 -89 215 -120 58 -32 139 -77 180 -100 41 -23 125 -69
185 -102 61 -34 151 -84 200 -113 163 -95 244 -135 272 -135 16 0 45 11 65 25
20 14 39 25 43 25 3 0 49 26 103 57 98 57 370 211 562 318 58 32 178 101 268
152 89 51 164 93 167 93 3 0 38 20 78 43 39 24 98 58 129 76 76 42 88 62 88
136 0 62 18 102 76 165 36 40 153 219 174 268 27 61 26 82 -4 82 -13 0 -34 8
-46 18 -22 18 -22 18 87 81 175 103 181 114 107 205 l-46 56 20 38 c45 88 67
302 52 512 -13 167 -48 338 -74 352 -30 17 -19 61 25 103 88 86 86 130 -7 159
-75 23 -79 27 -116 100 -71 140 -240 358 -384 495 -98 93 -249 209 -349 269
l-55 33 0 53 c0 160 -114 270 -262 253 -29 -4 -67 -17 -89 -32 -21 -13 -41
-20 -44 -15 -3 5 4 36 15 69 38 114 22 190 -59 272 -44 45 -68 61 -110 73 -62
18 -130 19 -181 3z m175 -98 c62 -33 81 -55 95 -115 17 -71 6 -85 -46 -61 -28
14 -39 15 -50 6 -11 -9 -31 -4 -92 24 -43 20 -90 39 -105 42 -32 8 -36 38 -11
74 37 52 139 67 209 30z m-544 -10 c32 -32 21 -91 -22 -130 -44 -39 -127 -63
-190 -55 -52 7 -102 -1 -94 -14 3 -5 -1 -12 -8 -17 -7 -4 -26 -25 -41 -45 -51
-68 -68 -40 -36 58 49 152 69 175 180 205 95 26 184 25 211 -2z m228 -113
c-11 -9 -130 -15 -124 -6 3 6 34 10 67 10 34 0 59 -2 57 -4z m65 -22 c26 -10
19 -50 -14 -78 -39 -32 -92 -42 -150 -27 -95 25 -100 90 -6 83 43 -4 46 -6 46
-34 0 -39 34 -36 38 5 3 23 8 27 33 27 19 0 29 5 29 15 0 17 2 18 24 9z m80
-75 c-82 -32 -114 -76 -114 -160 0 -49 -1 -51 -22 -44 -70 21 -98 24 -145 19
-53 -6 -53 -6 -53 21 0 38 -36 92 -73 111 l-31 17 34 17 c32 17 65 17 55 1 -2
-4 2 -8 9 -8 8 0 31 -8 51 -17 57 -27 109 -31 160 -12 41 16 105 74 105 96 0
5 16 2 35 -7 l35 -17 -46 -17z m134 -38 c47 -24 77 -56 96 -103 16 -36 15 -37
-13 -60 -34 -27 -56 -69 -66 -121 -7 -36 -8 -37 -52 -37 -118 0 -222 166 -168
269 34 66 128 90 203 52z m-724 -33 c-16 -12 -44 -35 -61 -52 -44 -41 -42 -24
5 29 24 29 45 44 61 45 23 0 23 0 -5 -22z m159 -12 c48 -19 67 -43 67 -81 0
-27 -6 -38 -27 -52 -16 -9 -41 -28 -56 -42 l-28 -26 6 43 c3 23 7 60 10 81 3
23 0 43 -6 46 -5 4 -29 -6 -52 -21 -23 -15 -50 -27 -59 -27 -26 2 -32 -16 -13
-37 17 -19 18 -19 52 7 l34 26 -2 -62 c-2 -44 2 -65 11 -71 11 -7 10 -13 -4
-34 -12 -19 -25 -26 -50 -26 -39 0 -86 33 -86 60 0 11 -7 40 -15 65 -15 43
-15 47 4 71 29 37 68 65 110 80 47 17 65 17 104 0z m998 -79 c43 -29 46 -53
14 -101 -22 -33 -25 -45 -19 -83 13 -89 -30 -122 -172 -130 -112 -7 -137 4
-154 69 -21 77 3 139 70 177 21 12 62 37 91 56 63 43 118 47 170 12z m-1349
-24 c48 -55 69 -164 48 -243 -32 -121 -108 -250 -147 -250 -13 0 -23 -3 -23
-6 0 -3 25 -28 55 -56 30 -27 55 -54 55 -60 0 -5 11 -24 24 -41 36 -48 132
-219 147 -263 7 -22 16 -88 19 -149 4 -71 9 -103 14 -90 4 11 14 34 22 52 8
17 14 38 14 46 0 27 18 29 50 6 28 -21 30 -28 30 -83 0 -68 21 -113 65 -142
24 -15 25 -21 25 -108 1 -159 22 -203 101 -213 61 -8 77 -25 84 -92 12 -107
48 -160 125 -186 57 -19 69 -31 40 -40 -11 -4 -27 -19 -35 -35 -8 -15 -26 -31
-40 -34 -16 -4 -25 -13 -25 -26 0 -19 4 -20 65 -14 l65 7 0 -77 0 -77 -26 20
c-24 19 -40 21 -151 21 -124 0 -125 0 -154 -29 -33 -34 -38 -75 -14 -121 21
-40 75 -53 197 -48 86 3 100 6 124 28 l27 25 -6 -39 c-3 -21 -13 -47 -22 -56
-24 -26 -121 -70 -180 -82 -44 -9 -59 -7 -125 17 -41 15 -85 28 -97 29 -13 0
-23 5 -23 10 0 5 -3 7 -6 3 -7 -7 -80 28 -106 51 -17 14 -18 47 -18 420 0 472
9 430 -118 583 -107 129 -153 199 -222 339 -33 66 -60 122 -60 124 0 2 -27 60
-59 128 -108 228 -108 275 0 403 44 53 68 101 114 230 39 109 58 135 99 135
19 0 39 -8 48 -17z m552 -54 c-2 -4 0 -10 6 -14 14 -9 1 -27 -13 -19 -7 4 -8
3 -4 -1 10 -12 39 -16 32 -5 -12 19 15 18 40 -2 18 -14 23 -23 15 -28 -17 -11
5 -50 28 -50 13 0 14 2 3 9 -8 5 -9 11 -3 15 11 6 16 -5 27 -61 9 -46 -4 -119
-26 -144 -10 -12 -24 -34 -31 -50 -16 -36 -61 -57 -83 -39 -12 10 -15 10 -15
-4 0 -13 -5 -14 -27 -5 -14 5 -33 7 -40 5 -8 -3 -12 -2 -9 3 7 10 -54 34 -63
26 -7 -7 21 -25 29 -20 4 2 7 -2 7 -10 0 -11 -5 -10 -24 2 -26 17 -27 22 -10
45 9 11 18 14 28 8 8 -5 22 -7 31 -4 13 4 16 1 12 -10 -3 -9 -4 -16 -1 -16 17
0 13 31 -5 41 -16 9 -19 8 -13 -2 6 -9 3 -10 -11 -4 -10 4 -32 7 -47 6 -17 -1
-26 3 -22 9 3 5 2 10 -3 10 -6 0 -9 8 -8 17 0 10 -7 19 -16 21 -13 2 -16 -1
-12 -12 3 -9 10 -13 15 -10 5 3 8 2 7 -3 -4 -17 14 -53 24 -47 7 4 8 2 4 -5
-22 -35 -67 61 -65 139 1 33 6 60 10 60 8 0 21 31 16 40 -1 3 12 19 28 35 21
20 22 23 5 10 l-25 -20 24 27 c35 40 99 69 148 66 23 -1 40 -5 37 -9z m-794
-79 c0 -31 -27 -59 -83 -85 -72 -33 -224 -134 -232 -154 -3 -7 16 -35 45 -64
54 -55 56 -59 37 -76 -10 -8 -34 -1 -97 29 -93 46 -80 48 -159 -30 l-36 -34
50 -14 c76 -22 92 -44 61 -87 -13 -18 -19 -18 -111 -6 l-97 13 -36 -39 c-49
-54 -146 -185 -179 -243 -20 -36 -37 -53 -65 -63 l-38 -15 15 26 c8 15 27 46
42 68 15 23 50 74 77 114 65 96 245 290 342 370 44 35 81 67 84 70 13 15 144
102 230 152 149 87 150 87 150 68z m415 -70 c3 -5 0 -10 -7 -10 -9 0 -9 -3 2
-10 13 -8 13 -10 -2 -10 -11 0 -16 7 -15 20 1 21 12 26 22 10z m87 -68 c4 -56
15 -95 46 -154 2 -5 -8 -8 -22 -8 -39 0 -79 -18 -105 -48 -22 -25 -23 -26 -18
-4 3 12 1 20 -4 16 -5 -3 -9 4 -9 16 0 13 4 19 12 14 7 -4 8 -3 4 5 -4 6 -12
9 -17 6 -5 -4 -9 3 -9 14 0 12 -4 21 -10 21 -14 0 -13 18 6 79 14 50 16 52 30
34 14 -16 15 -16 10 -1 -3 11 0 17 7 15 7 -1 12 9 11 28 -1 27 2 30 31 32 l33
3 4 -68z m662 46 c19 -73 30 -118 34 -145 l4 -32 -38 10 c-20 6 -56 8 -78 5
-37 -6 -42 -4 -43 14 -1 11 2 18 7 15 6 -3 7 0 4 8 -3 8 -1 18 5 22 8 4 8 12
0 27 -12 23 2 68 21 68 6 0 8 5 5 10 -4 6 10 10 35 10 24 0 42 -5 44 -12z
m611 -44 l25 -16 -42 -27 c-24 -15 -49 -31 -56 -35 -9 -6 -8 3 3 31 9 21 19
44 22 51 7 16 19 15 48 -4z m148 -104 c20 -14 37 -31 37 -39 0 -8 -3 -12 -6
-8 -3 3 -31 -3 -61 -14 -74 -25 -110 -25 -118 1 -9 27 0 37 51 61 24 12 41 26
38 31 -7 11 -1 8 59 -32z m-637 -72 c3 -31 3 -32 -11 -14 -8 11 -15 27 -15 35
0 14 -1 14 -10 1 -5 -8 -10 -13 -11 -10 0 3 -2 13 -4 22 -2 12 2 15 13 11 11
-5 13 -3 7 8 -5 9 -2 8 10 -3 9 -9 19 -31 21 -50z m-926 -62 c-1 -28 -7 -64
-14 -81 l-12 -29 -33 47 -33 48 34 49 c29 43 34 47 46 33 6 -9 12 -40 12 -67z
m838 64 c18 -11 39 -35 47 -53 14 -33 10 -87 -6 -87 -5 0 -29 -18 -53 -40 -24
-23 -58 -45 -75 -50 -38 -11 -92 3 -127 33 -36 32 -43 99 -14 145 41 66 161
93 228 52z m-626 -20 c44 -13 94 -66 107 -118 25 -91 -41 -182 -132 -182 -78
0 -146 88 -133 172 10 60 41 115 73 126 37 14 42 14 85 2z m161 -3 c3 -8 0
-14 -7 -14 -7 0 -13 6 -13 14 0 7 4 13 8 13 4 0 9 -6 12 -13z m32 -17 c3 -5 1
-10 -4 -10 -6 0 -11 5 -11 10 0 6 2 10 4 10 3 0 8 -4 11 -10z m150 -73 c1 -92
72 -156 173 -157 36 0 43 -3 39 -17 -3 -10 -10 -39 -17 -64 -14 -56 -59 -113
-98 -127 l-29 -10 19 36 c42 84 9 176 -82 222 -39 21 -133 15 -181 -9 -38 -20
-41 -20 -34 -4 14 36 17 80 7 114 l-9 35 71 0 c49 -1 80 5 101 16 17 10 32 17
35 18 3 0 5 -24 5 -53z m663 8 c42 -35 34 -95 -19 -139 -16 -14 -29 -34 -29
-46 0 -32 -25 -82 -52 -108 -38 -35 -120 -41 -181 -13 -67 30 -87 54 -87 99 0
65 24 88 170 163 74 38 143 69 152 69 9 0 30 -11 46 -25z m462 -9 c6 -8 10
-25 8 -37 -3 -19 -15 -25 -93 -41 -119 -25 -239 -17 -195 13 11 8 10 9 -7 4
-26 -7 -32 10 -7 19 9 3 31 6 50 6 19 0 48 7 64 15 64 33 160 44 180 21z
m-1100 -171 c50 -48 56 -109 15 -172 -32 -49 -138 -69 -209 -39 -101 42 -100
171 1 226 29 16 52 20 100 17 53 -2 67 -7 93 -32z m1228 -36 c31 -10 40 -23
24 -33 -4 -3 -41 4 -82 15 -40 10 -82 19 -91 19 -22 0 -35 20 -20 30 12 7 100
-10 169 -31z m-2720 -6 c-2 -11 -21 -21 -57 -30 -60 -16 -84 -11 -79 14 3 19
38 30 101 32 31 1 38 -2 35 -16z m1197 -58 c0 -36 -3 -65 -6 -65 -3 0 -24 16
-47 36 -47 39 -54 64 -19 64 16 0 72 22 72 29 0 1 0 -28 0 -64z m-707 -42 c27
-54 66 -136 87 -183 44 -99 87 -171 128 -219 l30 -35 -149 -72 c-418 -204
-667 -324 -669 -322 -2 2 -60 86 -130 188 -108 156 -184 259 -263 352 -13 16
-11 19 33 38 26 11 73 29 104 39 31 11 110 43 176 71 66 28 176 74 245 101 69
28 172 70 230 93 58 24 111 44 117 45 7 0 35 -43 61 -96z m1911 22 c78 -30
212 -85 299 -121 86 -37 204 -84 262 -106 58 -21 119 -45 137 -53 17 -8 37
-15 44 -15 7 0 -1 -15 -17 -32 -46 -50 -169 -219 -308 -426 -58 -84 -73 -101
-89 -96 -11 3 -106 48 -211 99 -105 51 -276 134 -381 184 -104 51 -191 94
-193 95 -7 8 64 114 108 162 55 61 76 101 85 167 6 40 15 56 51 89 24 22 49
55 56 74 6 19 13 34 14 34 1 0 66 -25 143 -55z m-597 -140 c16 -14 47 -28 68
-31 32 -5 39 -11 44 -37 7 -35 -11 -68 -51 -94 -30 -20 -134 -26 -167 -10 -13
6 -16 6 -12 -2 10 -15 -7 -14 -22 1 -31 31 9 135 68 174 19 13 36 24 38 24 2
0 17 -11 34 -25z m-581 -27 l39 -11 0 -67 c0 -53 -4 -73 -21 -94 -17 -21 -19
-29 -9 -41 10 -12 9 -15 -8 -15 -11 0 -30 12 -41 26 -18 23 -21 41 -21 120 0
102 -1 101 61 82z m328 -20 c1 -7 6 -121 11 -253 5 -158 13 -262 24 -305 8
-36 15 -79 16 -96 0 -35 -31 -74 -60 -74 -11 0 -20 -4 -20 -9 0 -15 37 -23 73
-16 30 6 31 6 12 -8 -39 -28 -88 -25 -120 8 -21 20 -25 34 -25 83 0 36 9 82
22 118 20 54 22 82 26 312 3 232 5 252 21 252 10 0 19 -6 20 -12z m-233 -495
c-7 -18 -31 -16 -50 3 -13 12 -16 39 -16 128 l0 112 33 15 32 14 3 -129 c1
-72 0 -136 -2 -143z m736 53 c84 -40 265 -128 403 -196 287 -140 276 -119 106
-203 -80 -40 -105 -49 -109 -38 -9 27 -83 99 -118 116 -23 11 -55 16 -95 14
-57 -2 -61 -1 -78 28 -33 53 -113 103 -167 103 -14 0 -39 17 -66 46 -32 34
-57 49 -91 58 l-46 12 34 48 c34 48 65 86 71 86 1 0 72 -33 156 -74z m-205
-147 c19 -12 33 -24 31 -28 -2 -3 -27 -28 -55 -55 l-53 -49 0 61 c0 98 13 110
77 71z m-947 -81 c0 -90 -1 -92 -16 -63 -8 17 -30 45 -47 63 l-32 34 35 29
c55 46 60 41 60 -63z m-158 -8 c45 -13 81 -57 98 -118 10 -41 10 -44 -22 -82
-25 -30 -40 -40 -63 -40 l-29 0 22 16 c39 27 21 104 -25 104 -25 0 -53 -30
-53 -56 0 -12 11 -31 25 -42 l25 -20 -35 -6 c-43 -8 -51 -4 -58 31 l-5 27 18
-24 c22 -30 38 -20 22 14 -6 13 -8 33 -5 45 6 24 -5 27 -32 7 -17 -12 -22 -10
-52 21 -35 38 -34 50 9 90 44 41 93 51 160 33z m1321 -33 c53 -40 55 -61 12
-105 -20 -20 -39 -50 -42 -65 -7 -34 -22 -41 -67 -33 -22 4 -37 15 -44 31 -6
13 -33 41 -61 63 l-49 39 19 32 c31 51 75 73 141 68 42 -2 65 -10 91 -30z
m-2439 -73 c21 -21 20 -37 -3 -58 -38 -34 -85 26 -49 62 16 16 33 15 52 -4z
m839 -25 c59 -16 107 -65 114 -116 5 -37 2 -46 -32 -86 -22 -26 -44 -43 -51
-40 -11 4 -9 11 6 30 25 33 25 54 -1 87 -25 32 -68 36 -76 6 -3 -11 -11 -20
-19 -20 -7 0 -17 -8 -23 -17 -9 -17 -14 -16 -70 12 -33 17 -61 35 -61 40 0 19
63 87 94 101 38 16 69 17 119 3z m1794 -26 c15 -16 26 -34 25 -42 -2 -7 1 -10
7 -7 9 6 23 -22 20 -40 -4 -24 2 -33 19 -27 14 5 13 3 -3 -10 -18 -15 -21 -14
-36 5 -9 11 -29 21 -45 22 -16 1 -35 5 -43 10 -9 6 -12 5 -7 -2 3 -6 2 -13 -4
-17 -5 -3 -10 -11 -10 -18 0 -6 7 -2 16 9 15 18 15 17 1 -7 -14 -24 -14 -28 6
-47 19 -20 19 -22 3 -28 -17 -7 -39 12 -31 27 3 3 -7 11 -21 18 -18 8 -24 17
-20 28 5 13 4 14 -8 4 -11 -9 -15 -8 -20 4 -4 11 -2 14 7 9 9 -5 9 -4 0 7 -21
21 -15 53 15 81 59 55 89 60 129 21z m-1519 -21 c2 -14 -2 -22 -12 -22 -19 0
-29 17 -22 36 8 22 30 12 34 -14z m-582 -122 c102 -55 188 -100 191 -100 2 0
92 -47 200 -105 107 -58 197 -105 199 -105 3 0 87 -44 187 -98 100 -54 196
-104 212 -111 17 -6 41 -21 54 -32 l23 -19 -39 -53 c-22 -28 -64 -78 -93 -110
-29 -32 -74 -85 -99 -117 -96 -122 -187 -221 -208 -226 -24 -6 -31 -3 -158 71
-49 28 -128 74 -175 100 -47 26 -128 73 -180 103 -52 30 -108 62 -125 70 -16
8 -102 56 -190 107 -88 51 -225 129 -305 175 -80 45 -151 87 -157 94 -10 9 -8
18 12 41 13 17 61 75 107 129 46 54 103 125 128 156 25 31 67 82 94 112 l49
56 43 -19 c24 -11 127 -65 230 -119z m2659 78 c28 -34 91 -109 140 -167 50
-59 105 -127 124 -151 19 -25 47 -59 63 -76 l29 -31 -58 -35 c-32 -20 -96 -57
-143 -83 -117 -65 -268 -153 -310 -181 -19 -12 -75 -45 -125 -72 -49 -27 -104
-57 -122 -68 -18 -10 -85 -50 -150 -88 -65 -38 -170 -100 -234 -137 -64 -38
-123 -69 -131 -69 -9 0 -37 26 -64 58 -27 31 -78 91 -114 132 -37 41 -77 89
-91 106 -13 17 -59 71 -101 119 -43 48 -78 90 -78 94 0 6 36 28 115 71 169 89
424 226 572 307 95 51 175 93 177 93 5 0 357 190 416 225 14 8 27 15 30 15 3
0 28 -28 55 -62z m-973 15 c9 -8 14 -21 12 -28 -4 -9 -12 -6 -29 11 -13 13
-29 24 -35 24 -5 0 -10 7 -10 15 0 13 4 14 23 4 12 -6 30 -18 39 -26z m-946
-91 c-7 -7 -46 28 -46 41 0 6 10 22 23 35 l22 24 3 -47 c2 -26 1 -50 -2 -53z
m672 45 c2 -10 -3 -17 -12 -17 -18 0 -29 16 -21 31 9 14 29 6 33 -14z m252
-34 c-1 -4 -12 -21 -25 -38 l-25 -30 0 26 c0 15 3 41 6 58 7 32 7 32 25 12 11
-11 19 -24 19 -28z m-1341 5 c11 -28 -5 -50 -19 -28 -13 20 -13 50 0 50 6 0
15 -10 19 -22z m275 -77 c23 -33 32 -58 35 -105 1 -5 9 -2 19 5 12 10 12 8 -3
-10 -11 -13 -19 -26 -17 -29 7 -14 -17 -12 -31 3 -9 8 -22 15 -31 15 -8 0 -27
11 -42 25 -15 14 -37 25 -49 25 -11 0 -29 6 -39 13 -15 11 -16 17 -5 40 7 15
16 27 20 27 5 0 18 8 29 18 26 22 62 31 76 20 7 -5 24 -26 38 -47z m1304 27
c28 -17 52 -45 52 -61 0 -3 -14 -14 -31 -25 -31 -19 -32 -19 -50 -1 -19 19
-79 27 -79 10 0 -5 14 -14 30 -20 17 -5 30 -14 30 -20 0 -18 -21 -23 -51 -11
-35 15 -48 7 -31 -21 11 -17 9 -21 -22 -35 -31 -15 -37 -15 -80 1 -45 17 -47
20 -41 49 11 51 58 119 98 142 46 26 125 22 175 -8z m-1633 12 c3 -5 2 -10 -4
-10 -5 0 -13 5 -16 10 -3 6 -2 10 4 10 5 0 13 -4 16 -10z m1069 -180 c7 -7 7
-16 0 -28 -16 -25 -182 -25 -197 0 -8 12 -7 21 3 33 13 15 27 17 99 12 46 -4
89 -11 95 -17z m-1469 -576 c178 -104 214 -124 265 -152 31 -17 54 -36 52 -43
-2 -8 -19 -51 -38 -97 -22 -50 -33 -90 -29 -102 7 -23 52 -37 67 -22 19 19 88
-27 105 -70 17 -42 48 -58 70 -35 13 13 11 28 -17 128 -17 63 -33 120 -35 127
-3 7 16 2 45 -13 l50 -25 0 -124 c0 -133 6 -151 52 -144 20 3 23 10 26 49 l3
47 47 -18 c72 -27 114 1 98 66 -5 19 -3 24 14 24 19 0 20 -6 20 -129 0 -154 7
-181 49 -181 17 0 31 6 35 16 11 29 7 292 -5 296 -7 2 -4 10 7 18 16 14 17 13
11 -3 -3 -9 -2 -17 2 -17 15 0 20 27 8 39 -8 8 -8 11 0 11 14 0 37 -56 29 -69
-4 -5 -1 -13 5 -17 7 -4 10 -3 7 2 -3 5 -2 18 2 29 6 19 7 18 26 -3 25 -29 34
-28 34 6 0 33 15 59 24 43 4 -6 4 -16 0 -23 -5 -7 -3 -8 5 -4 7 5 10 15 6 23
-5 13 -3 14 10 3 25 -20 42 2 27 35 -10 22 -9 24 10 22 15 -1 27 9 43 40 17
31 25 39 34 30 11 -11 16 7 12 41 -1 6 3 12 10 12 6 0 9 6 6 14 -3 8 1 20 8
26 18 15 49 5 39 -11 -4 -8 -3 -9 4 -5 6 3 9 20 7 36 -2 17 0 28 6 25 5 -4 9
-214 9 -520 l0 -514 -121 70 c-66 38 -123 69 -125 69 -2 0 -84 45 -180 100
-97 55 -179 100 -181 100 -3 0 -93 50 -201 111 -108 62 -282 160 -387 219
l-190 108 -3 211 -2 211 27 -12 c16 -7 60 -31 98 -54z m384 -351 c1 -7 -6 -10
-14 -7 -16 6 -21 45 -8 58 7 7 20 -22 22 -51z m560 25 c35 -18 46 -20 76 -10
31 9 34 8 25 -3 -7 -8 -15 -13 -19 -12 -3 1 -17 -8 -31 -21 -29 -27 -42 -24
-50 9 -4 15 -13 24 -24 24 -11 0 -20 8 -22 18 -3 21 -4 21 45 -5z m-73 -46
c-23 -23 -33 -6 -10 19 12 13 20 16 22 9 3 -7 -3 -19 -12 -28z m-196 -22 c0
-13 -4 -13 -35 2 -14 6 -25 17 -25 25 0 11 6 11 30 -2 17 -9 30 -20 30 -25z"/>
<path d="M2823 4376 c-4 -8 -19 -16 -32 -18 -55 -7 -53 -59 5 -126 46 -54 72
-69 81 -46 4 12 -4 25 -28 45 l-34 28 29 11 c26 9 28 14 23 45 -6 39 2 43 37
20 20 -14 25 -14 35 -1 11 13 7 19 -21 36 -38 23 -83 26 -95 6z m3 -57 c8 -14
-18 -31 -30 -19 -9 9 0 30 14 30 5 0 12 -5 16 -11z"/>
<path d="M3287 4110 c-5 -24 -16 -35 -49 -50 -24 -11 -37 -20 -30 -20 48 -1
111 60 92 89 -4 8 -9 1 -13 -19z"/>
<path d="M2392 2368 c-17 -17 -15 -53 4 -72 8 -9 33 -17 55 -18 21 -1 47 -2
56 -2 27 -2 26 22 -2 36 -14 8 -32 25 -38 39 -14 27 -55 37 -75 17z m43 -29
c0 -7 -8 -15 -17 -17 -18 -3 -25 18 -11 32 10 10 28 1 28 -15z"/>
<path d="M2409 4165 c-9 -17 -8 -18 3 -4 7 9 18 14 25 12 6 -2 13 0 16 4 3 5
-3 9 -15 9 -11 0 -24 -9 -29 -21z"/>
<path d="M2369 4122 c-15 -27 -15 -72 1 -72 4 0 10 8 14 18 3 9 10 27 15 39
16 35 -11 49 -30 15z m19 -12 c-7 -10 -14 -17 -17 -15 -4 4 18 35 25 35 2 0
-1 -9 -8 -20z"/>
<path d="M2339 4065 c-5 -56 -4 -77 5 -82 5 -3 6 -1 2 6 -4 6 -1 14 8 17 8 3
17 12 20 20 4 12 2 12 -14 4 -12 -6 -20 -7 -20 -1 0 5 4 11 9 13 4 2 5 12 0
23 l-8 20 -2 -20z"/>
<path d="M2530 3870 c0 -5 5 -10 11 -10 5 0 7 5 4 10 -3 6 -8 10 -11 10 -2 0
-4 -4 -4 -10z"/>
<path d="M2822 4040 c0 -14 2 -19 5 -12 2 6 2 18 0 25 -3 6 -5 1 -5 -13z"/>
<path d="M2801 4024 c0 -11 3 -14 6 -6 3 7 2 16 -1 19 -3 4 -6 -2 -5 -13z"/>
<path d="M2865 3820 c-8 -13 3 -30 19 -30 19 0 39 -27 31 -40 -5 -8 -12 -7
-23 3 -27 23 -71 30 -78 12 -4 -8 -1 -22 5 -29 19 -23 -4 -28 -24 -6 -10 11
-24 20 -32 20 -21 0 -15 -29 12 -55 31 -32 72 -33 86 -2 8 18 17 22 43 19 27
-3 34 1 44 23 10 21 9 31 -3 54 -19 38 -65 55 -80 31z"/>
<path d="M2231 3764 c-19 -13 -22 -24 -19 -55 2 -27 -1 -40 -11 -44 -11 -4
-10 -9 4 -25 14 -16 21 -17 32 -8 11 9 20 5 43 -17 17 -17 35 -25 44 -22 23 9
20 24 -8 42 -24 16 -24 17 -5 36 25 25 24 64 -1 89 -24 24 -48 25 -79 4z m57
-50 c4 -27 -24 -39 -36 -16 -5 9 -7 23 -5 30 8 20 38 9 41 -14z"/>
<path d="M3205 3508 c-11 -11 -29 -24 -40 -28 -19 -8 -19 -9 1 -9 25 -1 69 31
63 46 -2 5 -13 1 -24 -9z"/>
<path d="M2552 3534 c-26 -18 -31 -71 -7 -80 8 -4 15 -11 15 -16 0 -6 -19 -7
-50 -3 -30 4 -50 3 -50 -3 0 -35 98 -52 149 -25 39 20 52 43 25 43 -14 0 -15
3 -6 12 18 18 14 45 -10 68 -26 24 -37 25 -66 4z m48 -39 c0 -8 -7 -15 -15
-15 -8 0 -15 7 -15 15 0 8 7 15 15 15 8 0 15 -7 15 -15z"/>
<path d="M3070 3227 c0 -19 -42 -56 -76 -68 -28 -9 -28 -9 5 -4 50 7 81 31 81
60 0 14 -2 25 -5 25 -3 0 -5 -6 -5 -13z"/>
<path d="M3341 2301 c-10 -6 -9 -10 3 -14 8 -3 18 -2 21 3 8 13 -9 20 -24 11z"/>
<path d="M2350 1230 c-8 -5 -12 -12 -9 -15 4 -3 12 1 19 10 14 17 11 19 -10 5z"/>
<path d="M2126 1103 c-6 -14 -5 -15 5 -6 7 7 10 15 7 18 -3 3 -9 -2 -12 -12z"/>
<path d="M620 2955 c-5 -14 -20 -72 -32 -128 -38 -176 -29 -618 14 -699 11
-22 22 -23 40 -4 12 12 12 30 1 122 -20 158 -11 476 17 608 11 54 19 105 16
112 -9 24 -46 16 -56 -11z"/>
</g>
</svg>
